#VRML V2.0 utf8
Shape { appearance Appearance { material Material { diffuseColor 0.08 0.08 0.08 } } geometry IndexedFaceSet { solid FALSE coord Coordinate { point [ 2.2835 -0.0197 0.0000, 20.2835 -0.0197 0.0000, 20.2835 -1.0197 0.0000, 2.2835 -1.0197 0.0000, 2.2835 -0.0197 3.3465, 20.2835 -0.0197 3.3465, 20.2835 -1.0197 3.3465, 2.2835 -1.0197 3.3465 ] } coordIndex [ 0,1,2,3,-1, 7,6,5,4,-1, 0,4,5,1,-1, 1,5,6,2,-1, 2,6,7,3,-1, 3,7,4,0,-1 ] } }
Shape { appearance Appearance { material Material { diffuseColor 0.08 0.08 0.08 } } geometry IndexedFaceSet { solid FALSE coord Coordinate { point [ 2.2835 -9.0197 0.0000, 20.2835 -9.0197 0.0000, 20.2835 -10.0197 0.0000, 2.2835 -10.0197 0.0000, 2.2835 -9.0197 3.3465, 20.2835 -9.0197 3.3465, 20.2835 -10.0197 3.3465, 2.2835 -10.0197 3.3465 ] } coordIndex [ 0,1,2,3,-1, 7,6,5,4,-1, 0,4,5,1,-1, 1,5,6,2,-1, 2,6,7,3,-1, 3,7,4,0,-1 ] } }
Shape { appearance Appearance { material Material { diffuseColor 0.15 0.15 0.2 } } geometry IndexedFaceSet { solid FALSE coord Coordinate { point [ 0.0000 0.0000 4.3307, 20.3937 0.0000 4.3307, 20.3937 -10.0394 4.3307, 0.0000 -10.0394 4.3307, 0.0000 0.0000 4.9606, 20.3937 0.0000 4.9606, 20.3937 -10.0394 4.9606, 0.0000 -10.0394 4.9606 ] } coordIndex [ 0,1,2,3,-1, 7,6,5,4,-1, 0,4,5,1,-1, 1,5,6,2,-1, 2,6,7,3,-1, 3,7,4,0,-1 ] } }
Shape { appearance Appearance { material Material { diffuseColor 0.08 0.08 0.08 } } geometry IndexedFaceSet { solid FALSE coord Coordinate { point [ 5.5118 -1.5748 4.9606, 15.7480 -1.5748 4.9606, 15.7480 -8.2677 4.9606, 5.5118 -8.2677 4.9606, 5.5118 -1.5748 5.7480, 15.7480 -1.5748 5.7480, 15.7480 -8.2677 5.7480, 5.5118 -8.2677 5.7480 ] } coordIndex [ 0,1,2,3,-1, 7,6,5,4,-1, 0,4,5,1,-1, 1,5,6,2,-1, 2,6,7,3,-1, 3,7,4,0,-1 ] } }
Shape { appearance Appearance { material Material { diffuseColor 0.75 0.75 0.78 } } geometry IndexedFaceSet { solid FALSE coord Coordinate { point [ 17.4409 -3.3465 4.9606, 20.7087 -3.3465 4.9606, 20.7087 -6.6929 4.9606, 17.4409 -6.6929 4.9606, 17.4409 -3.3465 6.2205, 20.7087 -3.3465 6.2205, 20.7087 -6.6929 6.2205, 17.4409 -6.6929 6.2205 ] } coordIndex [ 0,1,2,3,-1, 7,6,5,4,-1, 0,4,5,1,-1, 1,5,6,2,-1, 2,6,7,3,-1, 3,7,4,0,-1 ] } }
