#VRML V2.0 utf8
Shape { appearance Appearance { material Material { diffuseColor 0.08 0.08 0.08 } } geometry IndexedFaceSet { solid FALSE coord Coordinate { point [ -3.2283 -1.3386 0.0000, -2.2441 -1.3386 0.0000, -2.2441 -7.4803 0.0000, -3.2283 -7.4803 0.0000, -3.2283 -1.3386 3.3465, -2.2441 -1.3386 3.3465, -2.2441 -7.4803 3.3465, -3.2283 -7.4803 3.3465 ] } coordIndex [ 0,1,2,3,-1, 7,6,5,4,-1, 0,4,5,1,-1, 1,5,6,2,-1, 2,6,7,3,-1, 3,7,4,0,-1 ] } }
Shape { appearance Appearance { material Material { diffuseColor 0.1 0.25 0.7 } } geometry IndexedFaceSet { solid FALSE coord Coordinate { point [ 0.0000 0.0000 2.3622, 15.0000 0.0000 2.3622, 15.0000 -8.7008 2.3622, 0.0000 -8.7008 2.3622, 0.0000 0.0000 2.9921, 15.0000 0.0000 2.9921, 15.0000 -8.7008 2.9921, 0.0000 -8.7008 2.9921 ] } coordIndex [ 0,1,2,3,-1, 7,6,5,4,-1, 0,4,5,1,-1, 1,5,6,2,-1, 2,6,7,3,-1, 3,7,4,0,-1 ] } }
Shape { appearance Appearance { material Material { diffuseColor 0.75 0.75 0.78 } } geometry IndexedFaceSet { solid FALSE coord Coordinate { point [ 4.7244 -1.1811 1.1024, 13.3858 -1.1811 1.1024, 13.3858 -7.4803 1.1024, 4.7244 -7.4803 1.1024, 4.7244 -1.1811 2.3622, 13.3858 -1.1811 2.3622, 13.3858 -7.4803 2.3622, 4.7244 -7.4803 2.3622 ] } coordIndex [ 0,1,2,3,-1, 7,6,5,4,-1, 0,4,5,1,-1, 1,5,6,2,-1, 2,6,7,3,-1, 3,7,4,0,-1 ] } }
Shape { appearance Appearance { material Material { diffuseColor 0.08 0.08 0.08 } } geometry IndexedFaceSet { solid FALSE coord Coordinate { point [ 1.1811 -1.5748 2.9921, 5.5118 -1.5748 2.9921, 5.5118 -4.7244 2.9921, 1.1811 -4.7244 2.9921, 1.1811 -1.5748 3.7795, 5.5118 -1.5748 3.7795, 5.5118 -4.7244 3.7795, 1.1811 -4.7244 3.7795 ] } coordIndex [ 0,1,2,3,-1, 7,6,5,4,-1, 0,4,5,1,-1, 1,5,6,2,-1, 2,6,7,3,-1, 3,7,4,0,-1 ] } }
