#VRML V2.0 utf8
Shape { appearance Appearance { material Material { diffuseColor 0.08 0.08 0.08 } } geometry IndexedFaceSet { solid FALSE coord Coordinate { point [ -0.0472 -0.2441 0.0000, 0.9528 -0.2441 0.0000, 0.9528 -4.2441 0.0000, -0.0472 -4.2441 0.0000, -0.0472 -0.2441 3.3465, 0.9528 -0.2441 3.3465, 0.9528 -4.2441 3.3465, -0.0472 -4.2441 3.3465 ] } coordIndex [ 0,1,2,3,-1, 7,6,5,4,-1, 0,4,5,1,-1, 1,5,6,2,-1, 2,6,7,3,-1, 3,7,4,0,-1 ] } }
Shape { appearance Appearance { material Material { diffuseColor 0.08 0.08 0.08 } } geometry IndexedFaceSet { solid FALSE coord Coordinate { point [ 4.9528 -0.2441 0.0000, 5.9528 -0.2441 0.0000, 5.9528 -4.2441 0.0000, 4.9528 -4.2441 0.0000, 4.9528 -0.2441 3.3465, 5.9528 -0.2441 3.3465, 5.9528 -4.2441 3.3465, 4.9528 -4.2441 3.3465 ] } coordIndex [ 0,1,2,3,-1, 7,6,5,4,-1, 0,4,5,1,-1, 1,5,6,2,-1, 2,6,7,3,-1, 3,7,4,0,-1 ] } }
Shape { appearance Appearance { material Material { diffuseColor 0.1 0.1 0.1 } } geometry IndexedFaceSet { solid FALSE coord Coordinate { point [ 0.0000 0.0000 4.3307, 5.9055 0.0000 4.3307, 5.9055 -4.4882 4.3307, 0.0000 -4.4882 4.3307, 0.0000 0.0000 4.9606, 5.9055 0.0000 4.9606, 5.9055 -4.4882 4.9606, 0.0000 -4.4882 4.9606 ] } coordIndex [ 0,1,2,3,-1, 7,6,5,4,-1, 0,4,5,1,-1, 1,5,6,2,-1, 2,6,7,3,-1, 3,7,4,0,-1 ] } }
