#VRML V2.0 utf8
Shape { appearance Appearance { material Material { diffuseColor 0.08 0.08 0.08 } } geometry IndexedFaceSet { solid FALSE coord Coordinate { point [ 0.0394 -0.1181 0.0000, 7.6378 -0.1181 0.0000, 7.6378 -1.1024 0.0000, 0.0394 -1.1024 0.0000, 0.0394 -0.1181 3.3465, 7.6378 -0.1181 3.3465, 7.6378 -1.1024 3.3465, 0.0394 -1.1024 3.3465 ] } coordIndex [ 0,1,2,3,-1, 7,6,5,4,-1, 0,4,5,1,-1, 1,5,6,2,-1, 2,6,7,3,-1, 3,7,4,0,-1 ] } }
Shape { appearance Appearance { material Material { diffuseColor 0.1 0.25 0.7 } } geometry IndexedFaceSet { solid FALSE coord Coordinate { point [ 0.0000 0.0000 4.3307, 8.1102 0.0000 4.3307, 8.1102 -5.7480 4.3307, 0.0000 -5.7480 4.3307, 0.0000 0.0000 4.9606, 8.1102 0.0000 4.9606, 8.1102 -5.7480 4.9606, 0.0000 -5.7480 4.9606 ] } coordIndex [ 0,1,2,3,-1, 7,6,5,4,-1, 0,4,5,1,-1, 1,5,6,2,-1, 2,6,7,3,-1, 3,7,4,0,-1 ] } }
