#VRML V2.0 utf8
Shape { appearance Appearance { material Material { diffuseColor 0.08 0.08 0.08 } } geometry IndexedFaceSet { solid FALSE coord Coordinate { point [ -2.0472 -1.8504 0.0000, -1.0630 -1.8504 0.0000, -1.0630 -7.8740 0.0000, -2.0472 -7.8740 0.0000, -2.0472 -1.8504 3.3465, -1.0630 -1.8504 3.3465, -1.0630 -7.8740 3.3465, -2.0472 -7.8740 3.3465 ] } coordIndex [ 0,1,2,3,-1, 7,6,5,4,-1, 0,4,5,1,-1, 1,5,6,2,-1, 2,6,7,3,-1, 3,7,4,0,-1 ] } }
Shape { appearance Appearance { material Material { diffuseColor 0.1 0.25 0.7 } } geometry IndexedFaceSet { solid FALSE coord Coordinate { point [ 0.0000 0.0000 1.1811, 16.5748 0.0000 1.1811, 16.5748 -9.4882 1.1811, 0.0000 -9.4882 1.1811, 0.0000 0.0000 1.8110, 16.5748 0.0000 1.8110, 16.5748 -9.4882 1.8110, 0.0000 -9.4882 1.8110 ] } coordIndex [ 0,1,2,3,-1, 7,6,5,4,-1, 0,4,5,1,-1, 1,5,6,2,-1, 2,6,7,3,-1, 3,7,4,0,-1 ] } }
Shape { appearance Appearance { material Material { diffuseColor 0.75 0.75 0.78 } } geometry IndexedFaceSet { solid FALSE coord Coordinate { point [ 11.0236 -1.9685 1.8110, 16.7717 -1.9685 1.8110, 16.7717 -7.4803 1.8110, 11.0236 -7.4803 1.8110, 11.0236 -1.9685 2.7559, 16.7717 -1.9685 2.7559, 16.7717 -7.4803 2.7559, 11.0236 -7.4803 2.7559 ] } coordIndex [ 0,1,2,3,-1, 7,6,5,4,-1, 0,4,5,1,-1, 1,5,6,2,-1, 2,6,7,3,-1, 3,7,4,0,-1 ] } }
